<svg id="Layer_1" data-name="Layer 1" xmlns="http://www.w3.org/2000/svg" xmlns:xlink="http://www.w3.org/1999/xlink" viewBox="0 0 112.4 44"><defs><style>.cls-1{fill:url(#Unbenannter_Verlauf_261);}.cls-2{fill:#fff;}</style><radialGradient id="Unbenannter_Verlauf_261" cx="1243.68" cy="742.63" r="1452.43" gradientUnits="userSpaceOnUse"><stop offset="0" stop-color="#ee2c45"/><stop offset="0.06" stop-color="#d72842"/><stop offset="0.26" stop-color="#971d3a"/><stop offset="0.45" stop-color="#611433"/><stop offset="0.62" stop-color="#370d2e"/><stop offset="0.77" stop-color="#19082a"/><stop offset="0.91" stop-color="#070528"/><stop offset="1" stop-color="#000427"/></radialGradient></defs><g id="contour"><polygon class="cls-1" points="1249.02 -694.03 1249.02 731.97 -1296.98 731.97 -1296.98 -694.03 -588.99 -694.03 -588.99 -686.03 -1288.98 -686.03 -1288.98 -603.03 -1288.98 723.97 -113.98 723.97 -113.98 640.97 -97.98 624.97 50.02 624.97 66.02 640.97 66.02 723.97 1241.02 723.97 1241.02 -686.03 541.01 -686.03 541.01 -694.03 1249.02 -694.03"/></g><polygon id="DPL" class="cls-2" points="0 11.82 17.07 11.82 22.33 17.07 22.33 22.98 33.49 22.98 33.49 20.36 30.87 20.36 22.33 11.82 36.78 11.82 42.03 17.07 42.03 11.82 50.57 11.82 50.57 35.46 57.13 35.46 66.33 44 42.03 44 42.03 27.58 38.09 31.52 30.87 31.52 30.87 44 22.33 44 22.33 38.75 17.07 44 0 44 0 22.98 8.54 22.98 8.54 35.46 13.79 35.46 13.79 20.36 8.54 20.36 0 11.82"/><path class="cls-2" d="M76.09,21.35C79.55,21.35,81,23.77,81,27V38.37c0,3.2-1.46,5.63-4.89,5.63H71.36V21.35Zm0,22c3,0,4.2-2.1,4.2-4.92V27c0-2.85-1.19-4.95-4.2-4.95h-4V43.32Z"/><path class="cls-2" d="M90.59,43.94h-.81l-5.6-21.53V44h-.65V21.35h1.1L90.2,42.83l5.56-21.48h1.11V44h-.72V22.41Z"/><path class="cls-2" d="M100.17,21.35V44h-.72V21.35Z"/><path class="cls-2" d="M103.43,44h-.68V21.35h1l8,21.19V21.35h.68V44h-.88l-8.09-21.62Z"/><polygon class="cls-2" points="59.52 35.46 62.75 22.15 66.7 38.01 63.44 38.01 64.14 38.66 66.83 38.66 67.64 41.91 68.57 42.77 63.27 21.31 62.27 21.31 58.86 35.46 59.52 35.46"/></svg>