<svg id="Layer_1" data-name="Layer 1" xmlns="http://www.w3.org/2000/svg" xmlns:xlink="http://www.w3.org/1999/xlink" viewBox="0 0 112.98 44"><defs><style>.cls-1{fill:url(#Unbenannter_Verlauf_261);}.cls-2{fill:#fff;}</style><radialGradient id="Unbenannter_Verlauf_261" cx="1243.68" cy="742.63" r="1452.43" gradientUnits="userSpaceOnUse"><stop offset="0" stop-color="#ee2c45"/><stop offset="0.06" stop-color="#d72842"/><stop offset="0.26" stop-color="#971d3a"/><stop offset="0.45" stop-color="#611433"/><stop offset="0.62" stop-color="#370d2e"/><stop offset="0.77" stop-color="#19082a"/><stop offset="0.91" stop-color="#070528"/><stop offset="1" stop-color="#000427"/></radialGradient></defs><g id="contour"><polygon class="cls-1" points="1249.02 -694.03 1249.02 731.97 -1296.98 731.97 -1296.98 -694.03 -588.99 -694.03 -588.99 -686.03 -1288.98 -686.03 -1288.98 -603.03 -1288.98 723.97 -113.98 723.97 -113.98 640.97 -97.98 624.97 50.02 624.97 66.02 640.97 66.02 723.97 1241.02 723.97 1241.02 -686.03 541.01 -686.03 541.01 -694.03 1249.02 -694.03"/></g><path class="cls-2" d="M75,18.35c3.5,0,5,2.29,5,5.63V35.37C80,38.7,78.49,41,75,41H70V18.35Zm0,21.29c2.52,0,3.56-1.71,3.56-4.21V23.91c0-2.49-1.07-4.2-3.56-4.2H71.5V39.64Z"/><path class="cls-2" d="M90.07,41H88.58l-4.79-20V41H82.47V18.35H84.6l4.76,20,4.72-20h2.14V41H94.8V20.87Z"/><path class="cls-2" d="M100.3,18.35V41H98.81V18.35Z"/><path class="cls-2" d="M104.25,41h-1.36V18.35h1.94l6.8,19.12V18.35H113V41h-1.65l-7.08-20.2Z"/><polygon id="DPL" class="cls-2" points="0 8.82 17.07 8.82 22.33 14.07 22.33 19.98 33.49 19.98 33.49 17.36 30.87 17.36 22.33 8.82 36.78 8.82 42.03 14.07 42.03 8.82 50.57 8.82 50.57 32.46 57.13 32.46 66.33 41 42.03 41 42.03 24.58 38.09 28.52 30.87 28.52 30.87 41 22.33 41 22.33 35.75 17.07 41 0 41 0 19.98 8.54 19.98 8.54 32.46 13.79 32.46 13.79 17.36 8.54 17.36 0 8.82"/><polygon class="cls-2" points="62.69 18.31 60.52 18.31 57.87 30.47 58.98 31.58 61.56 20.03 64.89 34.69 62.09 34.69 63.49 35.98 65.12 35.98 65.55 37.9 67.44 39.66 62.69 18.31"/></svg>