<svg id="Layer_1" data-name="Layer 1" xmlns="http://www.w3.org/2000/svg" xmlns:xlink="http://www.w3.org/1999/xlink" viewBox="0 0 80.24 48"><defs><style>.cls-1{fill:url(#Unbenannter_Verlauf_261);}.cls-2{fill:#fff;}.cls-3{fill:#ee2c45;}</style><radialGradient id="Unbenannter_Verlauf_261" cx="1247.02" cy="746.63" r="1452.43" gradientUnits="userSpaceOnUse"><stop offset="0" stop-color="#ee2c45"/><stop offset="0.06" stop-color="#d72842"/><stop offset="0.26" stop-color="#971d3a"/><stop offset="0.45" stop-color="#611433"/><stop offset="0.62" stop-color="#370d2e"/><stop offset="0.77" stop-color="#19082a"/><stop offset="0.91" stop-color="#070528"/><stop offset="1" stop-color="#000427"/></radialGradient></defs><g id="contour"><polygon class="cls-1" points="1252.36 -690.03 1252.36 735.97 -1293.64 735.97 -1293.64 -690.03 -585.64 -690.03 -585.64 -682.03 -1285.64 -682.03 -1285.64 -599.03 -1285.64 727.97 -110.64 727.97 -110.64 644.97 -94.64 628.97 53.36 628.97 69.36 644.97 69.36 727.97 1244.36 727.97 1244.36 -682.03 544.36 -682.03 544.36 -690.03 1252.36 -690.03"/></g><polygon id="DPL" class="cls-2" points="0 12.9 18.63 12.9 24.36 18.63 24.36 25.07 36.54 25.07 36.54 22.21 33.67 22.21 24.36 12.9 40.12 12.9 45.85 18.63 45.85 12.9 55.16 12.9 55.16 38.69 62.33 38.69 72.36 48 45.85 48 45.85 30.09 41.55 34.39 33.67 34.39 33.67 48 24.36 48 24.36 42.27 18.63 48 0 48 0 25.07 9.31 25.07 9.31 38.69 15.04 38.69 15.04 22.21 9.31 22.21 0 12.9"/><path id="clacker" class="cls-3" d="M63,36.54l9.32,8.59h0l1.43-1.43V40.84L72.36,39.4V33.67L75.22,33v-5l-2.86-.72V22.93l1.43-1.44V20.06h1.43a31.85,31.85,0,0,1,.72,14.33l-2.15.71v3.59l2.15,2.15s4.3-6.45,4.3-22.93V15.76L77.37,12.9H70.21v-.72H68.78l-.72.72H62.33L61.61,0H59.46l-.71,12.9H57.31V36.54Z"/></svg>