<?xml version="1.0" encoding="utf-8"?>
<!-- Generator: Adobe Illustrator 24.1.1, SVG Export Plug-In . SVG Version: 6.00 Build 0)  -->
<svg version="1.1" id="Layer_1" xmlns="http://www.w3.org/2000/svg" xmlns:xlink="http://www.w3.org/1999/xlink" x="0px" y="0px"
	 viewBox="0 0 341.8 341.8" style="enable-background:new 0 0 341.8 341.8;" xml:space="preserve">
<style type="text/css">
	.st0{fill:#FFFFFF;}
	.st1{display:none;}
	.st2{display:inline;fill:none;stroke:#D8D8D8;stroke-width:0.5;stroke-miterlimit:10;}
</style>
<g id="Artwork">
	<g>
		<path class="st0" d="M328,173.4c0-19-15.5-34.5-34.5-34.5c-9.4,0-17.7,3.6-23.7,9.7c-23.5-16.8-56-27.9-91.9-29.3l15.7-73.7
			l51.1,10.8c0.6,13,11.3,23.5,24.6,23.5c13.5,0,24.6-11,24.6-24.6c0-13.5-11-24.6-24.6-24.6c-9.7,0-17.9,5.5-21.8,13.8l-57.1-12.1
			c-1.7-0.3-3.3,0-4.7,0.8c-1.4,0.8-2.2,2.2-2.8,3.9l-17.4,82.3c-36.7,1.1-69.6,11.9-93.3,29.3c-6.1-5.8-14.6-9.7-23.7-9.7
			c-19,0-34.5,15.5-34.5,34.5c0,14.1,8.3,25.9,20.4,31.5c-0.6,3.3-0.8,6.9-0.8,10.5c0,53,61.6,95.8,137.7,95.8
			s137.7-42.8,137.7-95.8c0-3.6-0.3-6.9-0.8-10.2C319.4,199.6,328,187.5,328,173.4z M92,198c0-13.5,11-24.6,24.6-24.6
			s24.6,11,24.6,24.6s-11,24.6-24.6,24.6S92,211.5,92,198z M229.1,262.8c-16.8,16.8-48.9,17.9-58.2,17.9c-9.4,0-41.7-1.4-58.2-17.9
			c-2.5-2.5-2.5-6.6,0-9.1c2.5-2.5,6.6-2.5,9.1,0c10.5,10.5,33.1,14.4,49.4,14.4s38.6-3.9,49.4-14.4c2.5-2.5,6.6-2.5,9.1,0
			C231.6,256.5,231.6,260.3,229.1,262.8z M224.7,222.5c-13.5,0-24.6-11-24.6-24.6s11-24.6,24.6-24.6c13.5,0,24.6,11,24.6,24.6
			S238.3,222.5,224.7,222.5z"/>
	</g>
</g>
<g id="Spacing_Guide" class="st1">
	<rect y="0" class="st2" width="85.4" height="85.4"/>
	<rect y="0" class="st2" width="341.8" height="85.4"/>
	<rect y="256.3" class="st2" width="341.8" height="85.4"/>
	<rect y="0" class="st2" width="85.4" height="341.8"/>
	<rect x="256.4" y="0" class="st2" width="85.4" height="341.8"/>
</g>
</svg>
